<svg width="10" height="22" viewBox="0 0 10 22" fill="none" xmlns="http://www.w3.org/2000/svg">
<path d="M9.63586 0.00457747L7.32148 0C4.72134 0 3.04102 2.12509 3.04102 5.41423V7.91055H0.714012C0.512931 7.91055 0.350098 8.1115 0.350098 8.35937V11.9763C0.350098 12.2241 0.513117 12.4249 0.714012 12.4249H3.04102V21.5514C3.04102 21.7993 3.20386 22 3.40494 22H6.44103C6.64211 22 6.80494 21.799 6.80494 21.5514V12.4249H9.52576C9.72684 12.4249 9.88967 12.2241 9.88967 11.9763L9.89079 8.35937C9.89079 8.24036 9.85236 8.12638 9.78421 8.04215C9.71607 7.95793 9.62324 7.91055 9.52669 7.91055H6.80494V5.79439C6.80494 4.77727 7.00157 4.26094 8.07641 4.26094L9.63549 4.26025C9.83639 4.26025 9.99922 4.0593 9.99922 3.81166V0.453169C9.99922 0.205757 9.83657 0.00503522 9.63586 0.00457747Z" fill="#5B5B5B"/>
</svg>
