<svg width="20" height="20" viewBox="0 0 20 20" fill="none" xmlns="http://www.w3.org/2000/svg">
<path fill-rule="evenodd" clip-rule="evenodd" d="M1.66675 9.99984C1.66675 7.3589 1.66675 6.03843 2.11082 5.00143C2.6672 3.70216 3.7024 2.66695 5.00167 2.11057C6.03867 1.6665 7.35914 1.6665 10.0001 1.6665C12.641 1.6665 13.9615 1.6665 14.9985 2.11057C16.2978 2.66695 17.333 3.70216 17.8893 5.00143C18.3334 6.03843 18.3334 7.3589 18.3334 9.99984C18.3334 12.6408 18.3334 13.9612 17.8893 14.9982C17.333 16.2975 16.2978 17.3327 14.9985 17.8891C13.9615 18.3332 12.641 18.3332 10.0001 18.3332C7.35914 18.3332 6.03867 18.3332 5.00167 17.8891C3.7024 17.3327 2.6672 16.2975 2.11082 14.9982C1.66675 13.9612 1.66675 12.6408 1.66675 9.99984ZM10.0001 5.58807C7.56368 5.58807 5.58832 7.56344 5.58832 9.99984C5.58832 12.4362 7.56368 14.4116 10.0001 14.4116C12.4365 14.4116 14.4118 12.4362 14.4118 9.99984C14.4118 7.56344 12.4365 5.58807 10.0001 5.58807ZM10.0001 12.7572C8.48023 12.7572 7.24273 11.5197 7.24273 9.99984C7.24273 8.47888 8.48023 7.24248 10.0001 7.24248C11.5199 7.24248 12.7574 8.47888 12.7574 9.99984C12.7574 11.5197 11.5199 12.7572 10.0001 12.7572ZM15.3306 5.2572C15.3306 5.58187 15.0674 5.84506 14.7427 5.84506C14.4181 5.84506 14.1549 5.58187 14.1549 5.2572C14.1549 4.93253 14.4181 4.66933 14.7427 4.66933C15.0674 4.66933 15.3306 4.93253 15.3306 5.2572Z" fill="#5B5B5B"/>
</svg>
