<svg width="16" height="12" viewBox="0 0 16 12" fill="none" xmlns="http://www.w3.org/2000/svg">
<path d="M0.334012 0.973625C2.52995 2.83334 6.38314 6.10516 7.51564 7.12531C7.66767 7.263 7.83073 7.333 8.00001 7.333C8.16895 7.333 8.33173 7.26366 8.48342 7.12662C9.61689 6.10547 13.4701 2.83334 15.666 0.973625C15.8028 0.858062 15.8236 0.654937 15.7129 0.513656C15.457 0.187187 15.0755 0 14.6667 0H1.33336C0.924512 0 0.542981 0.187188 0.287137 0.513688C0.17645 0.654938 0.197293 0.858062 0.334012 0.973625Z" fill="white"/>
<path d="M15.8067 1.98143C15.6885 1.92643 15.5495 1.94562 15.4512 2.02962C13.0159 4.09406 9.90788 6.74025 8.93 7.6214C8.38116 8.11684 7.61944 8.11684 7.06931 7.62075C6.027 6.68162 2.53675 3.7145 0.548813 2.02959C0.449844 1.94559 0.310531 1.92706 0.193344 1.9814C0.0755312 2.03612 0 2.15396 0 2.28384V10.6667C0 11.402 0.597969 12 1.33334 12H14.6667C15.402 12 16 11.402 16 10.6667V2.28384C16 2.15396 15.9245 2.03581 15.8067 1.98143Z" fill="white"/>
</svg>
